<svg xmlns="http://www.w3.org/2000/svg" viewBox="0 0 323.959 323.959">
  <defs>
    <style>
      .cls-1 {
        fill: #95c457;
        opacity: 0.4;
      }
    </style>
  </defs>
  <title>hotspot</title>
  <g id="Ebene_2" data-name="Ebene 2">
    <g id="Ebene_1-2" data-name="Ebene 1">
      <polygon class="cls-1" points="323.959 121.485 313.836 121.485 313.836 91.114 303.712 91.114 303.712 70.866 293.588 70.866 293.588 60.742 283.465 60.742 283.465 50.619 273.341 50.619 273.341 40.495 263.217 40.495 263.217 30.371 253.093 30.371 253.093 20.247 232.846 20.247 232.846 10.124 202.475 10.124 202.475 0 121.485 0 121.485 10.124 91.114 10.124 91.114 20.247 70.866 20.247 70.866 30.371 60.742 30.371 60.742 40.495 50.619 40.495 50.619 50.619 40.495 50.619 40.495 60.742 30.371 60.742 30.371 70.866 20.247 70.866 20.247 91.114 10.124 91.114 10.124 121.485 0 121.485 0 202.475 10.124 202.475 10.124 232.846 20.247 232.846 20.247 253.093 30.371 253.093 30.371 263.217 40.495 263.217 40.495 273.341 50.619 273.341 50.619 283.465 60.742 283.465 60.742 293.588 70.866 293.588 70.866 303.712 91.114 303.712 91.114 313.836 121.485 313.836 121.485 323.959 202.475 323.959 202.475 313.836 232.846 313.836 232.846 303.712 253.093 303.712 253.093 293.588 263.217 293.588 263.217 283.465 273.341 283.465 273.341 273.341 283.465 273.341 283.465 263.217 293.588 263.217 293.588 253.093 303.712 253.093 303.712 232.846 313.836 232.846 313.836 202.475 323.959 202.475 323.959 121.485"/>
    </g>
  </g>
</svg>
